<?xml version="1.0" standalone="no"?>
<!DOCTYPE svg PUBLIC "-//W3C//DTD SVG 20010904//EN"
 "http://www.w3.org/TR/2001/REC-SVG-20010904/DTD/svg10.dtd">
<svg version="1.0" xmlns="http://www.w3.org/2000/svg"
 width="130.000000pt" height="130.000000pt" viewBox="0 0 130.000000 130.000000"
 preserveAspectRatio="xMidYMid meet">

<g transform="translate(0.000000,130.000000) scale(0.100000,-0.100000)"
fill="#000000" stroke="none">
<path d="M0 650 l0 -650 650 0 650 0 0 650 0 650 -650 0 -650 0 0 -650z m890
344 l0 -146 -77 -79 c-72 -74 -102 -112 -74 -95 7 4 19 2 28 -6 12 -9 15 -9 9
0 -5 9 11 12 71 12 l78 0 -104 -104 c-58 -58 -109 -102 -115 -99 -6 3 -8 3 -4
-2 9 -9 -9 -35 -24 -35 -6 0 -8 9 -5 20 6 22 -3 20 -43 -14 -14 -11 18 23 70
77 l95 97 -50 1 c-79 2 -88 -1 -125 -36 -49 -48 -105 -38 -60 10 13 14 19 25
14 26 -5 0 -52 0 -104 -1 l-95 -1 33 33 c18 18 133 135 255 260 122 126 223
228 225 228 1 0 2 -66 2 -146z m-360 -438 c0 -2 -8 -10 -17 -17 -16 -13 -17
-12 -4 4 13 16 21 21 21 13z m40 -15 c0 -5 -7 -12 -16 -15 -14 -5 -15 -4 -4 9
14 17 20 19 20 6z m94 -106 c3 -8 1 -15 -4 -15 -6 0 -10 7 -10 15 0 8 2 15 4
15 2 0 6 -7 10 -15z"/>
<path d="M665 838 l-160 -158 70 0 70 0 94 94 94 94 2 61 c1 34 0 63 -4 64 -3
2 -78 -68 -166 -155z"/>
</g>
</svg>
